<svg xmlns="http://www.w3.org/2000/svg" xmlns:xlink="http://www.w3.org/1999/xlink" width="640" height="640" viewBox="0 0 169.333 169.333"><defs><linearGradient xlink:href="#a" id="e" x1="67.139" x2="113.404" y1="169.332" y2="214.084" gradientTransform="translate(18.88 -9.719)" gradientUnits="userSpaceOnUse"/><linearGradient id="a"><stop offset="0" style="stop-color:#fff;stop-opacity:1"/><stop offset="1" style="stop-color:#c7c9c8;stop-opacity:1"/></linearGradient><linearGradient xlink:href="#b" id="f" x1="72.921" x2="158.516" y1="127.799" y2="158.312" gradientTransform="translate(18.88 -9.719)" gradientUnits="userSpaceOnUse"/><linearGradient id="b"><stop offset="0" style="stop-color:#00ca87;stop-opacity:1"/><stop offset="1" style="stop-color:#259a78;stop-opacity:1"/></linearGradient><linearGradient xlink:href="#c" id="g" x1="254.729" x2="263.104" y1="118.44" y2="111.145" gradientTransform="translate(-129.954 81.409)" gradientUnits="userSpaceOnUse"/><linearGradient id="c"><stop offset=".215" style="stop-color:#000;stop-opacity:0"/><stop offset="1" style="stop-color:#000;stop-opacity:.72590619"/></linearGradient><linearGradient xlink:href="#d" id="i" x1="78.129" x2="77.767" y1="149.188" y2="81.556" gradientUnits="userSpaceOnUse"/><linearGradient id="d"><stop offset="0" style="stop-color:#4ddaa3;stop-opacity:1"/><stop offset=".132" style="stop-color:#4ddaa3;stop-opacity:1"/><stop offset=".525" style="stop-color:#fff;stop-opacity:1"/></linearGradient><filter id="h" width="1.177" height="1.23" x="-.088" y="-.115" style="color-interpolation-filters:sRGB"><feGaussianBlur stdDeviation="1.442"/></filter></defs><path d="m75.732 104.503 10.172 10.69M62.327 128.936l11.108 4.676" style="fill:none;stroke:#1a1a1a;stroke-width:2.64583;stroke-linecap:butt;stroke-linejoin:miter;stroke-dasharray:none;stroke-opacity:1" transform="matrix(1.11394 0 0 1.12443 -51.526 -97.459)"/><path d="M56.835 156.72h10.082" style="fill:none;stroke:#1a1a1a;stroke-width:2.11667;stroke-linecap:butt;stroke-linejoin:miter;stroke-dasharray:none;stroke-opacity:1" transform="matrix(1.11394 0 0 1.12443 -51.526 -97.459)"/><path d="m61.435 179.774 9.083-3.8M75.412 203.306l8.205-8.555M101.159 216.681l3.535-9.215" style="fill:none;stroke:#1a1a1a;stroke-width:3.96875;stroke-linecap:butt;stroke-linejoin:miter;stroke-dasharray:none;stroke-opacity:1" transform="matrix(1.11394 0 0 1.12443 -51.526 -97.459)"/><path d="m182.81 180.001-8.835-5.16" style="fill:none;stroke:#1a1a1a;stroke-width:2.64583;stroke-linecap:butt;stroke-linejoin:miter;stroke-dasharray:none;stroke-opacity:1" transform="matrix(1.11394 0 0 1.12443 -51.526 -97.459)"/><path d="M186.504 155.506h-8.223" style="fill:none;stroke:#1a1a1a;stroke-width:2.11667;stroke-linecap:butt;stroke-linejoin:miter;stroke-dasharray:none;stroke-opacity:1" transform="matrix(1.11394 0 0 1.12443 -51.526 -97.459)"/><path d="m183.897 134.193-9.41 4.165M174.348 114.217l-8.47 6.06M160.265 100.323l-6.8 9.102" style="fill:none;stroke:#1a1a1a;stroke-width:2.64583;stroke-linecap:butt;stroke-linejoin:miter;stroke-dasharray:none;stroke-opacity:1" transform="matrix(1.11394 0 0 1.12443 -51.526 -97.459)"/><path d="M122.196 97.702a57.944 57.944 0 0 0-57.944 57.945 57.944 57.944 0 0 0 57.944 57.943 57.944 57.944 0 0 0 57.943-57.943 57.944 57.944 0 0 0-57.943-57.945m0 28.67a29.274 29.274 0 0 1 28.705 23.536 29.34 27.792 0 0 1 .635 5.739 29.34 27.792 0 0 1-.213 2.05 29 29 0 0 1-.283 2.721 29.34 27.792 0 0 1-.298 1.369 29.274 29.274 0 0 1-28.546 23.133 29.274 29.274 0 0 1-28.547-23.133 29.34 27.792 0 0 1-.298-1.369 29 29 0 0 1-.283-2.721 29.34 27.792 0 0 1-.213-2.05 29.34 27.792 0 0 1 .213-2.049 29 29 0 0 1 .283-2.725 29.34 27.792 0 0 1 .297-1.366 29.274 29.274 0 0 1 28.548-23.135" style="fill:#1a1a1a;fill-opacity:1;stroke:none;stroke-width:7.74907;stroke-dasharray:none;stroke-opacity:1" transform="matrix(1.11394 0 0 1.12443 -51.526 -97.459)"/><path d="M174.039 155.166h-22.612l.042.48a29.274 29.274 0 0 1-29.273 29.274 29 29 0 0 1-3.502-.25 27.79 29.338 18.333 0 1-.57-.041 29 29 0 0 1-4.327-.951 27.79 29.338 18.333 0 1-.83-.182 27.79 29.338 18.333 0 1-1.632-.736 29 29 0 0 1-2.365-1.067 27.79 29.338 18.333 0 1-1.477-.807 29.27 29.27 0 0 1-14.571-25.24l.047-.48H70.416a51.86 51.86 0 0 0 35.467 49.706 51.86 51.86 0 0 0 65.539-32.913 51.9 51.9 0 0 0 2.617-16.793" style="fill:url(#e);stroke:none;stroke-width:0;stroke-dasharray:none;stroke-opacity:1" transform="matrix(1.11394 0 0 1.12443 -51.526 -97.459)"/><path d="M123.979 103.818a51.86 51.86 0 0 0-51.01 35.515 51.9 51.9 0 0 0-2.553 15.833h22.553a29.274 29.274 0 0 1 29.227-28.794 29 29 0 0 1 3.777.254 27.79 29.338 18.333 0 1 .277.034 29 29 0 0 1 4.475.984 27.79 29.338 18.333 0 1 .7.153 27.79 29.338 18.333 0 1 5.239 2.41 29.27 29.27 0 0 1 14.763 24.959h22.612a51.86 51.86 0 0 0-35.53-48.746 51.9 51.9 0 0 0-14.53-2.602" style="fill:url(#f);stroke:none;stroke-width:0;stroke-dasharray:none;stroke-opacity:1" transform="matrix(1.11394 0 0 1.12443 -51.526 -97.459)"/><path d="M122.196 119.663c-19.874 0-35.984 16.11-35.984 35.984 0 19.872 16.11 35.982 35.984 35.982 19.872 0 35.983-16.11 35.983-35.982 0-19.874-16.11-35.984-35.983-35.984m0 6.71a29.274 29.274 0 0 1 29.273 29.273 29.274 29.274 0 0 1-29.273 29.274 29.274 29.274 0 0 1-29.274-29.274 29.274 29.274 0 0 1 29.274-29.274" style="fill:#1a1a1a;fill-opacity:1;stroke:none;stroke-width:0;stroke-dasharray:none;stroke-opacity:1" transform="matrix(1.11394 0 0 1.12443 -51.526 -97.459)"/><path d="M62.625 126.262a5.124 5.124 0 0 1-5.124 5.123 5.124 5.124 0 0 1-5.124-5.123 5.124 5.124 0 0 1 5.124-5.124 5.124 5.124 0 0 1 5.124 5.124z" style="fill:#4ddaa3;fill-opacity:1;stroke:#1a1a1a;stroke-width:4.49792;stroke-dasharray:none;stroke-opacity:1" transform="matrix(1.11394 0 0 1.12443 -51.526 -97.459)"/><path d="M78.048 101.027a5.124 5.124 0 0 1-5.124 5.124 5.124 5.124 0 0 1-5.124-5.124 5.124 5.124 0 0 1 5.124-5.124 5.124 5.124 0 0 1 5.124 5.124z" style="fill:#4ddaa3;fill-opacity:1;stroke:#1a1a1a;stroke-width:3.175;stroke-dasharray:none;stroke-opacity:1" transform="matrix(1.11394 0 0 1.12443 -51.526 -97.459)"/><path d="M166.258 96.8a3.93 3.93 0 0 1-3.932 3.933 3.93 3.93 0 0 1-3.932-3.932 3.93 3.93 0 0 1 3.932-3.932 3.93 3.93 0 0 1 3.932 3.932zM183.317 110.809a5.124 5.124 0 0 1-5.124 5.123 5.124 5.124 0 0 1-5.123-5.123 5.124 5.124 0 0 1 5.124-5.124 5.124 5.124 0 0 1 5.123 5.124z" style="fill:#4ddaa3;fill-opacity:1;stroke:#1a1a1a;stroke-width:2.64583;stroke-dasharray:none;stroke-opacity:1" transform="matrix(1.11394 0 0 1.12443 -51.526 -97.459)"/><path d="M56.97 156.452a3.48 3.48 0 0 1-3.482 3.482 3.48 3.48 0 0 1-3.482-3.482 3.48 3.48 0 0 1 3.482-3.481 3.48 3.48 0 0 1 3.481 3.481z" style="fill:#4ddaa3;fill-opacity:1;stroke:#1a1a1a;stroke-width:2.11667;stroke-dasharray:none;stroke-opacity:1" transform="matrix(1.11394 0 0 1.12443 -51.526 -97.459)"/><path d="M193.99 155.17a3.48 3.48 0 0 1-3.482 3.482 3.48 3.48 0 0 1-3.482-3.481 3.48 3.48 0 0 1 3.482-3.482 3.48 3.48 0 0 1 3.481 3.482z" style="fill:#4ddaa3;fill-opacity:1;stroke:#1a1a1a;stroke-width:3.175;stroke-dasharray:none;stroke-opacity:1" transform="matrix(1.11394 0 0 1.12443 -51.526 -97.459)"/><path d="M61.628 181.19a5.124 5.124 0 0 1-5.124 5.124 5.124 5.124 0 0 1-5.124-5.124 5.124 5.124 0 0 1 5.124-5.123 5.124 5.124 0 0 1 5.124 5.123z" style="fill:#4ddaa3;fill-opacity:1;stroke:#1a1a1a;stroke-width:3.96875;stroke-dasharray:none;stroke-opacity:1" transform="matrix(1.11394 0 0 1.12443 -51.526 -97.459)"/><path d="M192.74 181.247a5.124 5.124 0 0 1-5.124 5.124 5.124 5.124 0 0 1-5.124-5.124 5.124 5.124 0 0 1 5.124-5.124 5.124 5.124 0 0 1 5.124 5.124z" style="fill:#4ddaa3;fill-opacity:1;stroke:#1a1a1a;stroke-width:3.175;stroke-dasharray:none;stroke-opacity:1" transform="matrix(1.11394 0 0 1.12443 -51.526 -97.459)"/><path d="M105.509 222.822a6.93 6.93 0 0 1-6.928 6.928 6.93 6.93 0 0 1-6.928-6.928 6.93 6.93 0 0 1 6.928-6.928 6.93 6.93 0 0 1 6.928 6.928z" style="fill:#4ddaa3;fill-opacity:1;stroke:#1a1a1a;stroke-width:4.25536876;stroke-dasharray:none;stroke-opacity:1" transform="matrix(1.11394 0 0 1.12443 -51.526 -97.459)"/><path d="M77.354 207.683a8.407 8.407 0 0 1-8.406 8.406 8.407 8.407 0 0 1-8.407-8.406 8.407 8.407 0 0 1 8.407-8.407 8.407 8.407 0 0 1 8.406 8.407z" style="fill:#4ddaa3;fill-opacity:1;stroke:#1a1a1a;stroke-width:3.175;stroke-dasharray:none;stroke-opacity:1" transform="matrix(1.11394 0 0 1.12443 -51.526 -97.459)"/><path d="M68.907 154.233h20.226v3.5H68.907zM156.799 154.233h20.226v3.5h-20.226z" style="fill:#1a1a1a;fill-opacity:1;stroke:none;stroke-width:0;stroke-dasharray:none;stroke-opacity:1" transform="matrix(1.11394 0 0 1.12443 -51.526 -97.459)"/><path d="M193.278 132.01a5.124 5.124 0 0 1-5.124 5.124 5.124 5.124 0 0 1-5.124-5.124 5.124 5.124 0 0 1 5.124-5.124 5.124 5.124 0 0 1 5.124 5.124z" style="fill:#4ddaa3;fill-opacity:1;stroke:#1a1a1a;stroke-width:4.49792;stroke-dasharray:none;stroke-opacity:1" transform="matrix(1.11394 0 0 1.12443 -51.526 -97.459)"/><path d="M132.247 182.897a29.3 29.3 0 0 1-13.923 3.718 29 29 0 0 1-2.698-.27l-2.933 2.666 21.78 23.964a58 58 0 0 0 17.363-8.525z" style="fill:url(#g);fill-opacity:1;stroke:none;stroke-width:7.74907;stroke-dasharray:none;stroke-opacity:1;filter:url(#h)" transform="matrix(1.11394 0 0 1.12443 -51.526 -97.459)"/><path d="M68.562 80.114h1.613a17.23 17.23 45 0 1 17.227 17.228v44.69a9.125 9.125 135 0 1-9.124 9.124 9.72 9.72 45.026 0 1-9.716-9.725z" style="fill:url(#i);fill-opacity:1;stroke:#1a1a1a;stroke-width:5.70935;stroke-linecap:round;stroke-linejoin:round;stroke-dasharray:none;stroke-opacity:1;paint-order:normal" transform="matrix(.89543 -.87163 .8865 .88041 -60.368 75.598)"/></svg>